<mxfile host="app.diagrams.net" agent="Mozilla/5.0 (X11; Linux x86_64) AppleWebKit/537.36 (KHTML, like Gecko) Chrome/128.0.0.0 Safari/537.36" version="24.7.17">
  <diagram name="Page-1" id="SXLhyDdzsRdijofjXb-l">
    <mxGraphModel dx="810" dy="481" grid="1" gridSize="10" guides="1" tooltips="1" connect="1" arrows="1" fold="1" page="1" pageScale="1" pageWidth="827" pageHeight="1169" math="0" shadow="0">
      <root>
        <mxCell id="0" />
        <mxCell id="1" parent="0" />
        <mxCell id="hZ9v2fSf_5i6PvcOP5j9-31" style="edgeStyle=orthogonalEdgeStyle;rounded=0;orthogonalLoop=1;jettySize=auto;html=1;exitX=0.42;exitY=0;exitDx=0;exitDy=0;exitPerimeter=0;entryX=-0.01;entryY=0.418;entryDx=0;entryDy=0;entryPerimeter=0;" edge="1" parent="1" source="wIJZqPb1barkH6UpdxNB-1" target="hZ9v2fSf_5i6PvcOP5j9-22">
          <mxGeometry relative="1" as="geometry">
            <mxPoint x="140" y="260" as="sourcePoint" />
            <mxPoint x="340" y="160" as="targetPoint" />
          </mxGeometry>
        </mxCell>
        <mxCell id="wIJZqPb1barkH6UpdxNB-1" value="SD CARD" style="shape=image;html=1;verticalAlign=top;verticalLabelPosition=bottom;labelBackgroundColor=#ffffff;imageAspect=0;aspect=fixed;image=https://cdn2.iconfinder.com/data/icons/circle-icons-1/64/memorycard-128.png" parent="1" vertex="1">
          <mxGeometry x="105" y="280" width="88" height="88" as="geometry" />
        </mxCell>
        <mxCell id="hZ9v2fSf_5i6PvcOP5j9-23" value="" style="edgeStyle=orthogonalEdgeStyle;rounded=0;orthogonalLoop=1;jettySize=auto;html=1;" edge="1" parent="1" source="hZ9v2fSf_5i6PvcOP5j9-1" target="wIJZqPb1barkH6UpdxNB-1">
          <mxGeometry relative="1" as="geometry" />
        </mxCell>
        <mxCell id="hZ9v2fSf_5i6PvcOP5j9-24" value="Inserting in Rpi" style="edgeLabel;html=1;align=center;verticalAlign=middle;resizable=0;points=[];" vertex="1" connectable="0" parent="hZ9v2fSf_5i6PvcOP5j9-23">
          <mxGeometry x="-0.4167" y="-2" relative="1" as="geometry">
            <mxPoint as="offset" />
          </mxGeometry>
        </mxCell>
        <mxCell id="hZ9v2fSf_5i6PvcOP5j9-1" value="Rpi 1" style="shape=image;html=1;verticalAlign=top;verticalLabelPosition=bottom;labelBackgroundColor=#ffffff;imageAspect=0;aspect=fixed;image=https://cdn1.iconfinder.com/data/icons/fruit-136/64/Fruit_iconfree_Filled_Outline_raspberry-healthy-organic-food-fruit_icon-128.png" vertex="1" parent="1">
          <mxGeometry x="85" y="440" width="128" height="128" as="geometry" />
        </mxCell>
        <mxCell id="hZ9v2fSf_5i6PvcOP5j9-25" value="" style="edgeStyle=orthogonalEdgeStyle;rounded=0;orthogonalLoop=1;jettySize=auto;html=1;" edge="1" parent="1" source="hZ9v2fSf_5i6PvcOP5j9-2" target="hZ9v2fSf_5i6PvcOP5j9-19">
          <mxGeometry relative="1" as="geometry" />
        </mxCell>
        <mxCell id="hZ9v2fSf_5i6PvcOP5j9-26" value="Inserting in Rpi" style="edgeLabel;html=1;align=center;verticalAlign=middle;resizable=0;points=[];" vertex="1" connectable="0" parent="hZ9v2fSf_5i6PvcOP5j9-25">
          <mxGeometry x="-0.2195" y="-4" relative="1" as="geometry">
            <mxPoint as="offset" />
          </mxGeometry>
        </mxCell>
        <mxCell id="hZ9v2fSf_5i6PvcOP5j9-2" value="Rpi 2" style="shape=image;html=1;verticalAlign=top;verticalLabelPosition=bottom;labelBackgroundColor=#ffffff;imageAspect=0;aspect=fixed;image=https://cdn1.iconfinder.com/data/icons/fruit-136/64/Fruit_iconfree_Filled_Outline_raspberry-healthy-organic-food-fruit_icon-128.png" vertex="1" parent="1">
          <mxGeometry x="245" y="450" width="128" height="128" as="geometry" />
        </mxCell>
        <mxCell id="hZ9v2fSf_5i6PvcOP5j9-27" value="" style="edgeStyle=orthogonalEdgeStyle;rounded=0;orthogonalLoop=1;jettySize=auto;html=1;" edge="1" parent="1" source="hZ9v2fSf_5i6PvcOP5j9-3" target="hZ9v2fSf_5i6PvcOP5j9-20">
          <mxGeometry relative="1" as="geometry" />
        </mxCell>
        <mxCell id="hZ9v2fSf_5i6PvcOP5j9-28" value="Inserting in Rpi" style="edgeLabel;html=1;align=center;verticalAlign=middle;resizable=0;points=[];" vertex="1" connectable="0" parent="hZ9v2fSf_5i6PvcOP5j9-27">
          <mxGeometry x="-0.1685" y="-5" relative="1" as="geometry">
            <mxPoint as="offset" />
          </mxGeometry>
        </mxCell>
        <mxCell id="hZ9v2fSf_5i6PvcOP5j9-3" value="Rpi 3" style="shape=image;html=1;verticalAlign=top;verticalLabelPosition=bottom;labelBackgroundColor=#ffffff;imageAspect=0;aspect=fixed;image=https://cdn1.iconfinder.com/data/icons/fruit-136/64/Fruit_iconfree_Filled_Outline_raspberry-healthy-organic-food-fruit_icon-128.png" vertex="1" parent="1">
          <mxGeometry x="435" y="457" width="128" height="128" as="geometry" />
        </mxCell>
        <mxCell id="hZ9v2fSf_5i6PvcOP5j9-29" value="" style="edgeStyle=orthogonalEdgeStyle;rounded=0;orthogonalLoop=1;jettySize=auto;html=1;" edge="1" parent="1" source="hZ9v2fSf_5i6PvcOP5j9-4" target="hZ9v2fSf_5i6PvcOP5j9-21">
          <mxGeometry relative="1" as="geometry" />
        </mxCell>
        <mxCell id="hZ9v2fSf_5i6PvcOP5j9-30" value="Inserting in Rpi" style="edgeLabel;html=1;align=center;verticalAlign=middle;resizable=0;points=[];" vertex="1" connectable="0" parent="hZ9v2fSf_5i6PvcOP5j9-29">
          <mxGeometry x="-0.1236" y="-3" relative="1" as="geometry">
            <mxPoint as="offset" />
          </mxGeometry>
        </mxCell>
        <mxCell id="hZ9v2fSf_5i6PvcOP5j9-4" value="Rpi N" style="shape=image;html=1;verticalAlign=top;verticalLabelPosition=bottom;labelBackgroundColor=#ffffff;imageAspect=0;aspect=fixed;image=https://cdn1.iconfinder.com/data/icons/fruit-136/64/Fruit_iconfree_Filled_Outline_raspberry-healthy-organic-food-fruit_icon-128.png" vertex="1" parent="1">
          <mxGeometry x="675" y="457" width="128" height="128" as="geometry" />
        </mxCell>
        <mxCell id="hZ9v2fSf_5i6PvcOP5j9-5" value="....................." style="text;html=1;align=center;verticalAlign=middle;resizable=0;points=[];autosize=1;strokeColor=none;fillColor=none;" vertex="1" parent="1">
          <mxGeometry x="580" y="520" width="90" height="30" as="geometry" />
        </mxCell>
        <mxCell id="hZ9v2fSf_5i6PvcOP5j9-32" style="edgeStyle=orthogonalEdgeStyle;rounded=0;orthogonalLoop=1;jettySize=auto;html=1;entryX=0;entryY=0.75;entryDx=0;entryDy=0;" edge="1" parent="1" source="hZ9v2fSf_5i6PvcOP5j9-19" target="hZ9v2fSf_5i6PvcOP5j9-22">
          <mxGeometry relative="1" as="geometry" />
        </mxCell>
        <mxCell id="hZ9v2fSf_5i6PvcOP5j9-19" value="SD CARD" style="shape=image;html=1;verticalAlign=top;verticalLabelPosition=bottom;labelBackgroundColor=#ffffff;imageAspect=0;aspect=fixed;image=https://cdn2.iconfinder.com/data/icons/circle-icons-1/64/memorycard-128.png" vertex="1" parent="1">
          <mxGeometry x="260" y="270" width="98" height="98" as="geometry" />
        </mxCell>
        <mxCell id="hZ9v2fSf_5i6PvcOP5j9-33" style="edgeStyle=orthogonalEdgeStyle;rounded=0;orthogonalLoop=1;jettySize=auto;html=1;" edge="1" parent="1" source="hZ9v2fSf_5i6PvcOP5j9-20">
          <mxGeometry relative="1" as="geometry">
            <mxPoint x="460" y="170" as="targetPoint" />
          </mxGeometry>
        </mxCell>
        <mxCell id="hZ9v2fSf_5i6PvcOP5j9-20" value="SD CARD" style="shape=image;html=1;verticalAlign=top;verticalLabelPosition=bottom;labelBackgroundColor=#ffffff;imageAspect=0;aspect=fixed;image=https://cdn2.iconfinder.com/data/icons/circle-icons-1/64/memorycard-128.png" vertex="1" parent="1">
          <mxGeometry x="450" y="270" width="98" height="98" as="geometry" />
        </mxCell>
        <mxCell id="hZ9v2fSf_5i6PvcOP5j9-34" style="edgeStyle=orthogonalEdgeStyle;rounded=0;orthogonalLoop=1;jettySize=auto;html=1;exitX=0.5;exitY=0;exitDx=0;exitDy=0;" edge="1" parent="1" source="hZ9v2fSf_5i6PvcOP5j9-21">
          <mxGeometry relative="1" as="geometry">
            <mxPoint x="460" y="160" as="targetPoint" />
            <mxPoint x="740" y="261" as="sourcePoint" />
          </mxGeometry>
        </mxCell>
        <mxCell id="hZ9v2fSf_5i6PvcOP5j9-21" value="SD CARD" style="shape=image;html=1;verticalAlign=top;verticalLabelPosition=bottom;labelBackgroundColor=#ffffff;imageAspect=0;aspect=fixed;image=https://cdn2.iconfinder.com/data/icons/circle-icons-1/64/memorycard-128.png" vertex="1" parent="1">
          <mxGeometry x="690" y="270" width="98" height="98" as="geometry" />
        </mxCell>
        <mxCell id="hZ9v2fSf_5i6PvcOP5j9-22" value="Master SD card" style="shape=image;html=1;verticalAlign=top;verticalLabelPosition=bottom;labelBackgroundColor=#ffffff;imageAspect=0;aspect=fixed;image=https://cdn2.iconfinder.com/data/icons/circle-icons-1/64/memorycard-128.png" vertex="1" parent="1">
          <mxGeometry x="358" y="120" width="98" height="98" as="geometry" />
        </mxCell>
      </root>
    </mxGraphModel>
  </diagram>
</mxfile>
